<mxfile host="app.diagrams.net" modified="2024-01-11T10:07:04.337Z" agent="Mozilla/5.0 (Macintosh; Intel Mac OS X 10.15; rv:121.0) Gecko/20100101 Firefox/121.0" version="22.1.18" etag="jv-bYgxOcR4Gd1NUgubx" type="github">
  <diagram name="Page-1" id="zWvNcEpcgH09eCFYwzVJ">
    <mxGraphModel>
      <root>
        <mxCell id="0" />
        <mxCell id="1" parent="0" />
      </root>
    </mxGraphModel>
  </diagram>
</mxfile>
